<svg width="15" height="15" viewBox="0 0 15 15" fill="none" xmlns="http://www.w3.org/2000/svg">
<path d="M0.310471 13.2431C-0.0800529 13.6336 -0.0800529 14.2668 0.310471 14.6573C0.700996 15.0478 1.33416 15.0478 1.72468 14.6573L0.310471 13.2431ZM14.0176 1.95019C14.0176 1.39791 13.5699 0.950194 13.0176 0.950194L4.01758 0.950195C3.46529 0.950195 3.01758 1.39791 3.01758 1.95019C3.01758 2.50248 3.46529 2.95019 4.01758 2.95019L12.0176 2.95019L12.0176 10.9502C12.0176 11.5025 12.4653 11.9502 13.0176 11.9502C13.5699 11.9502 14.0176 11.5025 14.0176 10.9502L14.0176 1.95019ZM1.72468 14.6573L13.7247 2.6573L12.3105 1.24309L0.310471 13.2431L1.72468 14.6573Z" fill="white"/>
</svg>
